<svg height="512pt" viewBox="-1 0 512 512" width="512pt" xmlns="http://www.w3.org/2000/svg"><path d="m435.488281 458.648438h-404.835937c-12.789063 0-23.160156-10.371094-23.160156-23.160157v-404.835937c0-12.789063 10.371093-23.160156 23.160156-23.160156h404.835937c12.789063 0 23.160157 10.371093 23.160157 23.160156v404.835937c-.003907 12.789063-10.371094 23.160157-23.160157 23.160157zm0 0" fill="#e7e7e7"/><path d="m458.644531 30.648438v404.84375c0 12.789062-10.363281 23.152343-23.164062 23.152343h-28.054688c12.796875 0 23.164063-10.363281 23.164063-23.152343v-404.84375c0-12.785157-10.367188-23.152344-23.164063-23.152344h28.058594c12.796875 0 23.160156 10.367187 23.160156 23.152344zm0 0" fill="#cecece"/><path d="m458.644531 86.5h-451.152343v-55.847656c0-12.789063 10.371093-23.160156 23.160156-23.160156h404.835937c12.789063 0 23.160157 10.371093 23.160157 23.160156v55.847656zm0 0" fill="#64dcfc"/><path d="m458.644531 30.648438v55.851562h-28.054687v-55.851562c0-12.785157-10.367188-23.152344-23.164063-23.152344h28.054688c12.800781 0 23.164062 10.367187 23.164062 23.152344zm0 0" fill="#00d1fc"/><path d="m59.726562 46.996094c0 8.019531-6.5 14.519531-14.519531 14.519531s-14.519531-6.5-14.519531-14.519531c0-8.015625 6.5-14.515625 14.519531-14.515625s14.519531 6.5 14.519531 14.515625zm0 0" fill="#ff6b81"/><path d="m115.796875 46.996094c0 8.019531-6.503906 14.519531-14.519531 14.519531-8.019532 0-14.519532-6.5-14.519532-14.519531 0-8.015625 6.5-14.515625 14.519532-14.515625 8.015625 0 14.519531 6.5 14.519531 14.515625zm0 0" fill="#ffd86e"/><path d="m171.863281 46.996094c0 8.019531-6.5 14.519531-14.515625 14.519531-8.019531 0-14.519531-6.5-14.519531-14.519531 0-8.015625 6.5-14.515625 14.519531-14.515625 8.015625 0 14.515625 6.5 14.515625 14.515625zm0 0" fill="#80e0dc"/><path d="m59.71875 47.003906c0 8.011719-6.492188 14.507813-14.507812 14.507813-3.882813 0-7.414063-1.523438-10.015626-4.015625 7.855469-.167969 14.179688-6.589844 14.179688-14.496094 0-4.144531-1.730469-7.863281-4.503906-10.507812.109375-.007813.230468-.007813.339844-.007813 8.015624 0 14.507812 6.492187 14.507812 14.519531zm0 0" fill="#ff435f"/><path d="m115.792969 47.003906c0 8.011719-6.492188 14.507813-14.519531 14.507813-3.882813 0-7.402344-1.523438-10.015626-4.015625 7.867188-.167969 14.1875-6.589844 14.1875-14.496094 0-4.144531-1.730468-7.863281-4.5-10.507812.109376-.007813.21875-.007813.328126-.007813 8.027343 0 14.519531 6.492187 14.519531 14.519531zm0 0" fill="#ffb509"/><path d="m171.863281 47.003906c0 8.011719-6.503906 14.507813-14.515625 14.507813-3.882812 0-7.40625-1.523438-10.015625-4.015625 7.863281-.167969 14.175781-6.589844 14.175781-14.496094 0-4.144531-1.730468-7.863281-4.5-10.507812.109376-.007813.230469-.007813.339844-.007813 8.011719 0 14.515625 6.492187 14.515625 14.519531zm0 0" fill="#00a8b0"/><path d="m54.023438 169.457031h17.621093v7.984375c0 2.40625 2.9375 3.613282 5.875 3.613282s5.875-1.207032 5.875-3.613282v-7.984375h3.238281c1.804688 0 3.613282-2.710937 3.613282-5.421875 0-2.710937-1.203125-5.421875-3.613282-5.421875h-3.238281v-5.273437c0-2.484375-2.9375-3.539063-5.875-3.539063s-5.875 1.054688-5.875 3.539063v5.273437h-6.476562l13.332031-26.734375c.226562-.527344.375-.980468.375-1.433594 0-2.710937-3.839844-4.441406-5.875-4.441406-1.878906 0-3.761719.828125-4.894531 3.011719l-17.394531 34.113281c-.453126.828125-.601563 1.660156-.601563 2.261719 0 2.636719 1.730469 4.066406 3.914063 4.066406zm0 0"/><path d="m111.410156 181.507812c10.394532 0 18.527344-4.820312 18.527344-17.773437v-19.957031c0-12.957032-8.132812-17.773438-18.527344-17.773438-10.390625 0-18.449218 4.816406-18.449218 17.773438v19.957031c0 12.953125 8.058593 17.773437 18.449218 17.773437zm-6.703125-37.730468c0-5.199219 2.488281-7.53125 6.703125-7.53125 4.21875 0 6.777344 2.335937 6.777344 7.53125v19.957031c0 5.195313-2.558594 7.53125-6.777344 7.53125-4.214844 0-6.703125-2.335937-6.703125-7.53125zm0 0"/><path d="m136.414062 169.457031h17.625v7.984375c0 2.40625 2.9375 3.613282 5.871094 3.613282 2.9375 0 5.875-1.207032 5.875-3.613282v-7.984375h3.238282c1.808593 0 3.617187-2.710937 3.617187-5.421875 0-2.710937-1.207031-5.421875-3.617187-5.421875h-3.238282v-5.273437c0-2.484375-2.9375-3.539063-5.875-3.539063s-5.871094 1.054688-5.871094 3.539063v5.273437h-6.476562l13.328125-26.734375c.226563-.527344.375-.980468.375-1.433594 0-2.710937-3.839844-4.441406-5.871094-4.441406-1.882812 0-3.765625.828125-4.894531 3.011719l-17.398438 34.113281c-.449218.828125-.601562 1.660156-.601562 2.261719 0 2.636719 1.730469 4.066406 3.914062 4.066406zm0 0"/><path d="m56.523438 221.136719h21.8125c4.136718 0 7.492187-3.355469 7.492187-7.492188 0-4.140625-3.355469-7.492187-7.492187-7.492187h-21.8125c-4.136719 0-7.492188 3.351562-7.492188 7.492187 0 4.136719 3.355469 7.492188 7.492188 7.492188zm0 0"/><path d="m235.824219 206.148438h-133.066407c-4.136718 0-7.492187 3.355468-7.492187 7.496093 0 4.136719 3.355469 7.492188 7.492187 7.492188h133.066407c4.140625 0 7.492187-3.355469 7.492187-7.492188 0-4.140625-3.351562-7.496093-7.492187-7.496093zm0 0"/><path d="m215.613281 245.003906h-48.664062c-4.140625 0-7.496094 3.351563-7.496094 7.492188 0 4.136718 3.355469 7.492187 7.496094 7.492187h48.664062c4.136719 0 7.492188-3.355469 7.492188-7.492187 0-4.140625-3.355469-7.492188-7.492188-7.492188zm0 0"/><path d="m141.5 245.003906h-15.167969c-4.140625 0-7.496093 3.351563-7.496093 7.492188 0 4.136718 3.355468 7.492187 7.496093 7.492187h15.167969c4.136719 0 7.492188-3.355469 7.492188-7.492187 0-4.140625-3.355469-7.492188-7.492188-7.492188zm0 0"/><path d="m101.917969 245.003906h-45.394531c-4.136719 0-7.492188 3.351563-7.492188 7.492188 0 4.136718 3.355469 7.492187 7.492188 7.492187h45.394531c4.136719 0 7.492187-3.355469 7.492187-7.492187 0-4.140625-3.355468-7.492188-7.492187-7.492188zm0 0"/><path d="m503.652344 421.214844c0 46-37.292969 83.292968-83.296875 83.292968-46 0-83.292969-37.292968-83.292969-83.292968 0-46.003906 37.292969-83.292969 83.292969-83.292969 46.003906 0 83.296875 37.289063 83.296875 83.292969zm0 0" fill="#c9f0ff"/><path d="m503.652344 421.214844c0 46.003906-37.292969 83.296875-83.296875 83.296875-17.652344 0-34.011719-5.492188-47.480469-14.859375 7.105469 1.980468 14.601562 3.03125 22.335938 3.03125 46.003906 0 83.296874-37.289063 83.296874-83.296875 0-28.355469-14.167968-53.398438-35.8125-68.429688 35.160157 9.757813 60.957032 41.996094 60.957032 80.257813zm0 0" fill="#9ae7fd"/><path d="m447.949219 421.214844 19.828125-19.824219c2.734375-2.738281 2.734375-7.171875 0-9.90625l-17.6875-17.6875c-2.734375-2.734375-7.167969-2.734375-9.90625 0l-19.824219 19.828125-19.828125-19.828125c-2.734375-2.734375-7.171875-2.734375-9.90625 0l-17.6875 17.6875c-2.734375 2.734375-2.734375 7.167969 0 9.90625l19.828125 19.824219-19.828125 19.828125c-2.734375 2.734375-2.734375 7.167969 0 9.90625l17.6875 17.6875c2.734375 2.734375 7.171875 2.734375 9.90625 0l19.828125-19.828125 19.824219 19.828125c2.738281 2.734375 7.171875 2.734375 9.90625 0l17.6875-17.6875c2.734375-2.738281 2.734375-7.171875 0-9.90625zm0 0" fill="#ff6b81"/><path d="m467.78125 441.046875c2.730469 2.730469 2.730469 7.164063 0 9.90625l-17.691406 17.679687c-2.730469 2.742188-7.171875 2.742188-9.90625 0l-4.242188-4.242187 13.4375-13.449219c2.742188-2.730468 2.742188-7.164062 0-9.894531l-14.707031-14.714844c-2.824219-2.828125-2.824219-7.410156 0-10.234375l14.707031-14.714844c2.742188-2.730468 2.742188-7.164062 0-9.90625l-13.4375-13.4375 4.242188-4.242187c2.734375-2.738281 7.171875-2.738281 9.90625 0l17.691406 17.6875c2.730469 2.734375 2.730469 7.164063 0 9.90625l-19.832031 19.824219zm0 0" fill="#ff435f"/><path d="m45.207031 24.984375c-12.136719 0-22.011719 9.875-22.011719 22.011719 0 12.140625 9.875 22.011718 22.011719 22.011718s22.011719-9.875 22.011719-22.011718c0-12.136719-9.875-22.011719-22.011719-22.011719zm0 29.039063c-3.875 0-7.023437-3.152344-7.023437-7.027344 0-3.871094 3.148437-7.023438 7.023437-7.023438s7.023438 3.152344 7.023438 7.023438c0 3.875-3.148438 7.027344-7.023438 7.027344zm0 0"/><path d="m101.277344 24.984375c-12.136719 0-22.011719 9.875-22.011719 22.011719 0 12.140625 9.875 22.015625 22.011719 22.015625 12.136718 0 22.011718-9.875 22.011718-22.015625 0-12.136719-9.875-22.011719-22.011718-22.011719zm0 29.039063c-3.875 0-7.027344-3.152344-7.027344-7.027344 0-3.871094 3.152344-7.023438 7.027344-7.023438s7.023437 3.152344 7.023437 7.023438c0 3.875-3.152343 7.027344-7.023437 7.027344zm0 0"/><path d="m157.347656 24.984375c-12.136718 0-22.011718 9.875-22.011718 22.011719 0 12.140625 9.871093 22.015625 22.011718 22.015625 12.136719 0 22.011719-9.875 22.011719-22.015625 0-12.136719-9.875-22.011719-22.011719-22.011719zm0 29.039063c-3.875 0-7.027344-3.152344-7.027344-7.027344 0-3.871094 3.152344-7.023438 7.027344-7.023438 3.871094 0 7.023438 3.152344 7.023438 7.023438 0 3.875-3.152344 7.027344-7.023438 7.027344zm0 0"/><path d="m510.671875 411.914062c-2.265625-22.246093-12.664063-42.8125-29.28125-57.910156-4.714844-4.285156-9.835937-8.007812-15.253906-11.175781v-312.175781c0-16.902344-13.75-30.652344-30.648438-30.652344h-404.835937c-16.902344 0-30.652344 13.75-30.652344 30.652344v141.269531c0 4.140625 3.355469 7.492187 7.492188 7.492187 4.140624 0 7.492187-3.351562 7.492187-7.492187v-77.925781h436.167969v241.820312c-9.785156-3.523437-20.179688-5.390625-30.792969-5.390625-50.0625 0-90.789063 40.726563-90.789063 90.789063 0 10.484375 1.792969 20.558594 5.078126 29.941406h-303.996094c-8.640625 0-15.667969-7.027344-15.667969-15.667969v-217.277343c0-4.136719-3.351563-7.492188-7.492187-7.492188-4.136719 0-7.492188 3.355469-7.492188 7.492188v217.277343c0 16.902344 13.75 30.652344 30.652344 30.652344h310.835937c15.652344 27.371094 45.140625 45.859375 78.867188 45.859375 34.503906 0 65.585937-19.152344 81.121093-49.980469 1.863282-3.695312.375-8.199219-3.320312-10.0625-3.695312-1.859375-8.199219-.375-10.0625 3.320313-12.976562 25.742187-38.929688 41.738281-67.738281 41.738281-41.796875 0-75.800781-34.003906-75.800781-75.800781s34.003906-75.800782 75.800781-75.800782c39.039062 0 71.457031 29.242188 75.410156 68.019532.417969 4.117187 4.101563 7.113281 8.210937 6.695312 4.117188-.421875 7.113282-4.097656 6.695313-8.214844zm-59.519531-332.90625h-436.167969v-48.355468c0-8.636719 7.027344-15.667969 15.667969-15.667969h404.835937c8.636719 0 15.664063 7.03125 15.664063 15.667969zm0 0"/><path d="m477.320312 396.4375c0-3.871094-1.507812-7.511719-4.246093-10.253906l-17.6875-17.6875c-5.652344-5.648438-14.847657-5.648438-20.5.003906l-14.53125 14.527344-14.527344-14.53125c-5.652344-5.648438-14.847656-5.648438-20.5 0l-17.691406 17.691406c-2.738281 2.738281-4.242188 6.378906-4.242188 10.25s1.507813 7.511719 4.246094 10.25l14.527344 14.527344-14.53125 14.53125c-5.652344 5.648437-5.652344 14.847656.003906 20.5l17.6875 17.6875c2.738281 2.738281 6.378906 4.246094 10.25 4.246094s7.511719-1.507813 10.25-4.246094l14.527344-14.527344 14.527343 14.527344c2.738282 2.738281 6.378907 4.246094 10.253907 4.246094 3.871093 0 7.511719-1.507813 10.25-4.246094l17.6875-17.6875c5.652343-5.652344 5.652343-14.851563 0-20.503906l-14.527344-14.527344 14.527344-14.527344c2.738281-2.738281 4.246093-6.378906 4.246093-10.25zm-34.667968 19.480469c-1.40625 1.40625-2.195313 3.3125-2.195313 5.296875 0 1.988281.789063 3.894531 2.195313 5.300781l19.480468 19.480469-16.996093 16.996094-19.480469-19.484376c-2.925781-2.921874-7.671875-2.921874-10.597656 0l-19.480469 19.484376-16.996094-16.996094 19.480469-19.480469c1.40625-1.40625 2.195312-3.3125 2.195312-5.300781 0-1.988282-.789062-3.890625-2.195312-5.296875l-19.480469-19.480469 16.996094-16.996094 19.484375 19.480469c1.40625 1.40625 3.308594 2.195313 5.296875 2.195313s3.894531-.789063 5.300781-2.195313l19.480469-19.480469 16.996094 16.996094zm0 0"/></svg>