<svg xmlns="http://www.w3.org/2000/svg" width="119.725" height="78.626" viewBox="0 0 119.725 78.626"><path d="M337.6,1128.306v-26.678a16.021,16.021,0,0,0,3.846-.99c7.168-2.32,12.574.183,16.583,4.507a.158.158,0,0,1-.01-.028.039.039,0,0,0,.011.011v7.613h-.011v25.445H347.272c-7.905.061-9.742-4.227-9.671-9.88Z" transform="translate(-320.624 -1059.56)" fill="#999" fill-rule="evenodd"/><path d="M358.024,1105.368A16.452,16.452,0,0,0,342.4,1103.9a15.382,15.382,0,0,1-4.809,1.073v-3.158a16.038,16.038,0,0,0,3.847-.99c6.9-2.157,12.248-.061,16.341,4.26-.021-.015,0,.022.095.1-.37-.392-.122-.139.119.122a.515.515,0,0,1,.029.061Z" transform="translate(-320.618 -1059.75)" fill="#333" fill-rule="evenodd"/><path d="M239.837,1027.053c-4.009-4.323-9.415-6.827-16.583-4.507-8.536,3.3-15.371-1.012-20.822-11.49a25.8,25.8,0,0,0,15.91.453c10.279-3.615,17.013,2.092,21.495,15.544Z" transform="translate(-202.432 -981.468)" fill="#00a54f" fill-rule="evenodd"/><path d="M857.909,1138.186v-25.445H857.9v-7.613l.01-.011-.008.028c4.009-4.323,9.414-6.827,16.583-4.507a16,16,0,0,0,3.844.99v26.678c.071,5.653-1.765,9.941-9.671,9.88Z" transform="translate(-775.579 -1059.56)" fill="#999" fill-rule="evenodd"/><path d="M857.925,1105.2c.241-.261.489-.514.119-.122.092-.076.115-.113.094-.1,4.452-4.369,9.622-6.435,16.343-4.26a16.018,16.018,0,0,0,3.846.99v3.158a15.386,15.386,0,0,1-4.809-1.073,16.452,16.452,0,0,0-15.621,1.465.355.355,0,0,1,.028-.061Z" transform="translate(-775.579 -1059.642)" fill="#333" fill-rule="evenodd"/><path d="M857.91,1027.053c4.009-4.323,9.414-6.827,16.583-4.507,8.536,3.3,15.371-1.012,20.822-11.49a25.8,25.8,0,0,1-15.91.453c-10.279-3.615-17.013,2.092-21.495,15.544Z" transform="translate(-775.59 -981.468)" fill="#00a54f" fill-rule="evenodd"/><path d="M378.582,849.921l-20.621-34.878a25.375,25.375,0,0,0-6.2-7.72,15.867,15.867,0,0,0-14.125-3.006l-.036.011V789.6c-.071-5.653,1.765-9.941,9.671-9.88l8.145.029,25.071,38.029,23.477-37.984v-.075h.043l.007-.01v.01H413.7c7.905-.061,9.742,4.227,9.671,9.88v14.732l-.036-.011a15.867,15.867,0,0,0-14.125,3.006,27.926,27.926,0,0,0-6.279,7.244L381.84,849.921Z" transform="translate(-320.624 -779.706)" fill="#00a54f" fill-rule="evenodd"/></svg>